# xmcd CD database file
#
# Track frame offsets:
#	150
#	15906
#	31593
#	45657
#	68250
#	83031
#	104055
#	119433
#	145587
#	161520
#	181584
#	199263
#	215016
#	236220
#	251529
#
# Disc length: 3598 seconds
#
# Revision: 2
# Processed by: cddbd v1.5.2PL0 Copyright (c) Steve Scherf et al.
# Submitted via: CDex 1.70beta2
#
DISCID=be0e0c0f
DTITLE=Jimmy LaFave - Road Novel
DYEAR=1997
DGENRE=Country
TTITLE0=You'll Never Know
TTITLE1=Hold On
TTITLE2=Vast Stretches of Broken Heart
TTITLE3=Into Your Life
TTITLE4=Ramblin' Sky
TTITLE5=Home Sweet Oklahoma
TTITLE6=Buckets of Rain
TTITLE7=Long Ago with Miles Between
TTITLE8=Long Time Since the Last Time
TTITLE9=Never Put The Blame
TTITLE10=The Open Space
TTITLE11=You've Got that Right
TTITLE12=The Big Wheels
TTITLE13=Heart of a Woman
TTITLE14=The Great Night
EXTD=YEAR: 1997
EXTT0=
EXTT1=
EXTT2=
EXTT3=
EXTT4=
EXTT5=
EXTT6=
EXTT7=
EXTT8=
EXTT9=
EXTT10=
EXTT11=
EXTT12=
EXTT13=
EXTT14=
PLAYORDER=
